<?xml version="1.0" encoding="utf-8"?>
<!-- Generator: Adobe Illustrator 23.0.0, SVG Export Plug-In . SVG Version: 6.00 Build 0)  -->
<svg version="1.1" id="Ebene_1" xmlns="http://www.w3.org/2000/svg" xmlns:xlink="http://www.w3.org/1999/xlink" x="0px" y="0px"
	 viewBox="0 0 260 260" style="enable-background:new 0 0 260 260;" xml:space="preserve">
<style type="text/css">
	.st0{fill:#FFFFFF;}
	.st1{fill:#0277BD;}
</style>
<path class="st0" d="M260,260H0V0h260V260z"/>
<circle class="st1" cx="130" cy="130" r="121"/>
<g>
	<g>
		<path class="st0" d="M86,81.3c1-1,2.2-1.9,3.5-2.9s2.7-1.8,4.2-2.5c1-0.3,2.1-0.5,3.2-0.6s2.1,0,3.2,0.4c0.2,0.3,0.7,0.5,1.3,0.6
			c1.1,0.8,2,2,2.5,3.3c0.5,1.4,1.1,2.8,1.7,4.1c-0.1,0.5,0,0.9,0.2,1.2c0.1,1.2,0.1,2.4,0.1,3.6c-0.1,1.2,0,2.4,0.1,3.6
			c0.1,0.5,0.1,1.1,0,1.7c0,0.6,0,1.2,0,1.8c-0.1,0.7-0.1,1.3-0.1,2s0,1.3,0,1.9c0,0.2,0,0.4,0.1,0.5c0.1,0.2,0.1,0.4,0.1,0.5
			c0,1-0.1,2-0.3,3c-0.2,1-0.2,2,0.1,3.1c0.1,0.2,0.3,0.5,0.4,0.7s0.3,0.4,0.5,0.6c2-1.4,3.6-3.1,4.8-5.3c1.2-2.1,2.2-4.5,2.9-7.2
			c0.1-0.3,0.3-0.5,0.5-0.5c0-0.4,0.1-0.8,0.4-1.2c0,1-0.1,2.2-0.4,3.6s-0.6,2.5-0.9,3.6c0.1,0.2,0,0.4,0,0.5
			c-0.1,0.1-0.1,0.3,0,0.5c-0.4,0.8-0.6,1.7-0.9,2.7c-0.2,1-0.7,1.7-1.4,2.1c0,0.2-0.1,0.4-0.2,0.5s-0.2,0.2-0.3,0.4
			c-0.4,0.3-0.7,0.6-1,0.9s-0.6,0.7-0.9,1.1c-0.5,0.2-0.9,0.5-1.4,0.8c-0.4,0.3-0.9,0.4-1.4,0.5c-1.3,0.1-2.3-0.2-3.1-0.9
			c-0.7-0.8-1.2-1.7-1.4-2.8c0-0.7-0.1-1.3-0.2-2c-0.2-0.7-0.2-1.4-0.2-2.1s0-1.4,0.1-2.1s0.2-1.4,0.3-2.2c0-1.9,0.1-4.1,0.3-6.4
			c0.2-2.3,0.2-4.6,0-6.8c-0.4-1-0.8-2-1.2-2.9c-0.4-0.9-1-1.7-1.7-2.4c-0.4-0.1-0.6-0.2-0.6-0.4c-0.8-0.1-1.6-0.2-2.2-0.1
			c-0.6,0-1.3,0.2-2,0.5c-0.5,0.5-1,0.9-1.7,1.2c-0.6,0.3-1.1,0.8-1.3,1.5c-0.2,0-0.3,0-0.4,0.1s-0.2,0.1-0.3,0.1
			c-0.2,0.4-0.6,0.8-1,1.2c-0.5,0.4-0.7,0.9-0.8,1.4c-0.4,0.2-0.6,0.5-0.8,0.9c-0.2,0.4-0.4,0.7-0.7,0.9c0.1,0.1,0.1,0.2,0.1,0.3
			c-0.1,0.1-0.1,0.2-0.1,0.3c-0.6,0.8-1.1,1.5-1.5,2.3c-0.4,0.7-0.8,1.5-1.3,2.4c-0.1,0.1-0.1,0.2,0,0.3c0,0.1,0,0.2,0,0.4
			c-0.5,0.8-0.9,1.7-1.3,2.7s-0.7,1.9-1,2.9c-0.1,0.2-0.1,0.4,0,0.5c0,0.1,0,0.3,0,0.6c-0.5,1.9-0.8,4-1.1,6.1
			c-0.2,2.2-0.7,4-1.4,5.5c0.2,0.5,0.1,1-0.1,1.4c-0.2,0.5-0.3,1-0.3,1.4c-0.2,0.2-0.3,0.5-0.5,0.9c-0.1,0.4-0.2,0.6-0.1,0.8
			c-0.4,0.9-0.8,1.8-1.2,2.7c-0.5,0.9-0.7,2-0.8,3.2c-0.2,0.4-0.3,0.7-0.5,1.1s-0.4,0.7-0.7,1c0.1,0.6-0.1,1.2-0.5,1.7
			c-0.5,0.5-0.9,1-1.2,1.3c-0.1,0.1-0.3,0.1-0.6-0.1c-0.3,0.1-0.5,0.3-0.6,0.7c-0.1-0.2-0.3-0.3-0.4-0.4s-0.3-0.2-0.3-0.5
			c-0.2,0.1-0.3,0.2-0.2,0.3c0,0.1,0,0.3,0,0.4c-0.5,0.1-0.9,0-1.3,0c-0.4-0.1-0.8-0.1-1.2-0.1c-0.1-0.1-0.1-0.2,0-0.4
			c0.1-0.1,0.1-0.3,0.1-0.5s-0.1-0.3-0.2-0.4s-0.2-0.2-0.2-0.4c0.1-0.3,0.1-0.6,0-0.9s-0.1-0.6,0-0.9s0.2-0.6,0.3-0.9
			c0.2-0.3,0.3-0.6,0.4-0.9c0.1-0.5,0.2-1,0.2-1.5s0.2-1.1,0.5-1.5c-0.1-1,0-2.1,0.4-3.1c0.4-1.1,0.5-2.2,0.5-3.5
			c0.1-0.1,0.2-0.3,0.2-0.5s0.1-0.3,0.3-0.4c-0.2-0.5-0.1-1,0.2-1.5c0.1-0.2,0-0.3-0.1-0.3s-0.1-0.1-0.1-0.2
			c0.3-1.2,0.6-2.4,0.8-3.6c0.2-1.2,0.4-2.5,0.6-3.9c0.1-0.4,0.2-0.8,0.3-1c0.1-0.3,0.1-0.6,0.1-1.1c0.2-1.1,0.5-2.1,0.7-3
			s0.4-1.9,0.5-3.1c0.3-1.2,0.6-2.5,0.9-4s0.5-2.8,0.6-4c0.3-0.7,0.5-1.5,0.5-2.4c0-1,0.2-1.7,0.5-2.3c0.1-0.2,0.1-0.3,0-0.4
			s-0.1-0.2-0.1-0.3c0.2-1.4,0.5-2.9,0.8-4.5c0.3-1.7,0.5-3.3,0.5-4.9c0.3-0.8,0.5-1.8,0.7-2.8s0.4-2,0.6-3.1
			c0.2-0.7,0.4-1.4,0.6-2.1s0.3-1.5,0.5-2.3c0.1-0.1,0.2-0.1,0.2-0.3c0-0.1,0.1-0.2,0.2-0.3c0.1-1.4,0.4-2.8,0.7-4.2
			s0.6-2.8,0.7-4.1c0.4-1.1,0.6-2.1,0.9-3.1c0.2-1,0.5-2,0.9-3c0-0.3,0-0.5-0.1-0.5c-0.1-0.1,0-0.2,0.1-0.1c0.1,0,0.2,0,0.3-0.1
			c0.1-0.7,0.3-1.4,0.5-1.9c0.2-0.6,0.4-1.2,0.7-1.8c0.2,0.1,0.4,0,0.5-0.2c0.4,0.1,0.7,0.3,1.1,0.5s0.8,0.3,1.2,0.1
			c0.6,0.3,1.1,0.7,1.4,1.2c0.4,0.5,0.7,1,1.1,1.5c0.1,0.5,0.1,0.9,0,1.1c-0.1,0.3-0.1,0.6,0,1c-0.7,1.3-1,2.7-1,4.2
			s-0.1,3.2-0.2,4.9c0.1,0.2,0,0.3-0.1,0.3s-0.2,0.1-0.2,0.3c0.1,0.8,0.1,1.5,0.1,1.9c-0.1,0.5-0.2,1-0.5,1.6c0,1.4-0.1,2.6-0.4,3.7
			s-0.5,2.3-0.6,3.5c0.1,0.1,0,0.2-0.1,0.2s-0.2,0.1-0.2,0.2c-0.4,1.8-0.6,3.6-0.6,5.3c-0.1,1.7-0.4,3.4-1.1,5.1c0,0.7,0,1.3,0,1.8
			C86.4,80.3,86.3,80.8,86,81.3z"/>
		<path class="st0" d="M119.9,165.5c2.8,0,5.8-0.1,8.9-0.4c3.1-0.3,6.3-0.1,9.5,0.4c-0.1,0.5,0,0.9,0,1.3c0.1,0.4,0,0.8-0.3,1.1
			c-0.5,0.2-1,0.3-1.6,0.3c-2.7,0.5-5.4,0.8-8.2,0.9c-2.8,0.1-5.7,0.2-8.7,0.4c-0.9,0.1-1.8,0.1-2.8,0s-1.8-0.3-2.6-0.7
			c-0.3-0.3-0.5-0.7-0.5-1.2c-0.1-0.5-0.2-0.9-0.5-1.3c0.2-0.8,0.5-1.6,0.8-2.2c0.3-0.6,0.5-1.3,0.6-2.1c0.5-0.7,0.8-1.5,1-2.5
			s0.5-1.8,1-2.5c0.4-1.7,0.9-3.3,1.4-4.9c0.5-1.6,1.1-3.1,1.6-4.6s1.1-3.1,1.6-4.6c0.5-1.6,1-3.2,1.4-4.9c0.1-0.1,0.2-0.1,0.1-0.2
			c0-0.1,0,0,0.1,0.1c0.2-1.1,0.5-2,0.8-2.9c0.3-0.8,0.6-1.8,0.8-2.8c0.5-1.2,1-2.6,1.4-4.1s0.9-2.9,1.4-4.1c0-0.1,0-0.2-0.1-0.2
			s-0.1-0.1,0-0.2c0.3-0.8,0.6-1.7,0.9-2.6s0.6-1.7,0.7-2.3c0.3-0.4,0.5-0.8,0.7-1.3c0.1-0.5,0.4-1,0.7-1.3
			c-0.2-0.2-0.2-0.3-0.2-0.3c0.2-0.1,0.3-0.3,0.4-0.4c0.1-0.1,0.1-0.4,0.1-0.8c0.8-1.7,1.5-3.5,2-5.4c0.6-1.9,1.2-3.7,1.8-5.2
			c0.1-0.7,0.2-1.2,0.3-1.7s0.3-1,0.4-1.6c0.5-2.6,0.5-4.9,0.2-6.9c-0.4-2-1.3-3.8-2.9-5.4c-0.3-0.1-0.6-0.2-0.8-0.3
			c-0.2-0.1-0.5-0.1-0.9,0c-0.5,0.4-0.8,0.9-1,1.5s-0.3,1.2-0.3,1.9c0,0.7,0,1.3,0.1,2.1c0.1,0.7,0.1,1.4,0,2
			c0.5,0.7,0.7,1.5,0.7,2.4s0.1,1.8,0.3,2.6c-0.1,0.2-0.2,0.3-0.3,0.4s-0.2,0.2-0.3,0.3c-1.4,0.1-2.8,0.2-4.3,0.4
			c-1.5,0.1-2.9,0-4.1-0.4c-0.1-0.2-0.1-0.4,0-0.6c0.1-0.1,0.2-0.4,0.2-0.7c0-0.1-0.1-0.2-0.2-0.1c-0.2,0-0.3,0-0.3-0.1
			c0.4-0.5,0.5-1,0.5-1.7c-0.1-0.7,0-1.3,0.1-2c-0.1-0.5-0.1-1.1,0-1.8c0.1-0.6,0.2-1.3,0-2.1c0.1-0.2,0.2-0.5,0.3-0.8
			s0.1-0.6,0-0.8c0.5-1.5,1.2-2.8,2.2-3.8s2.2-1.6,3.8-1.9c1.6,0.1,3,0.3,4.2,0.4c1.2,0.2,2.4,0.5,3.6,0.9c0.4,0.3,0.8,0.6,1.3,0.8
			c0.4,0.2,0.9,0.5,1.4,0.8c0.2,0.3,0.5,0.6,0.7,0.9s0.5,0.6,0.8,0.9c0,0.1,0,0.2,0.1,0.3c0.1,0.1,0.1,0.2,0,0.4
			c0.5,0.4,0.9,0.9,1,1.5c0.1,0.7,0.3,1.2,0.6,1.7c0.1,0.7,0.1,1.2,0,1.5s0,0.8,0.2,1.3c-0.1,0.8-0.1,1.4,0,1.9s0,1-0.3,1.4
			c0.2,0.8,0.1,1.5-0.1,2.1c-0.2,0.6-0.3,1.3-0.2,1.9c-0.2,0.3-0.4,0.7-0.5,1.2s-0.1,1-0.1,1.4c-0.4,0.5-0.6,1-0.6,1.6
			s-0.3,1.1-0.7,1.5c0.1,0.8,0,1.5-0.3,2.2s-0.7,1.3-1,1.9c-0.3,1.3-0.6,2.7-1,4.3c-0.4,1.5-0.9,2.9-1.5,4.2c-0.1,0.1,0,0.2,0,0.3
			c0.1,0.1,0.1,0.2,0,0.3c-0.2,1.2-0.6,2.3-1,3.3c-0.5,1-0.8,2.1-0.9,3.3c-0.4,0.5-0.6,1.1-0.7,1.8c-0.1,0.7-0.3,1.3-0.8,1.8
			c-0.1,0.5-0.2,1-0.3,1.5c-0.1,0.4-0.3,0.8-0.6,1.1c-0.3,1-0.5,1.9-0.7,2.7s-0.5,1.7-0.9,2.4c-0.1,1.1-0.3,2.2-0.8,3.2
			s-0.9,2-1.3,2.9c0,0.2,0,0.2,0,0.1c0-0.1-0.1-0.1-0.2,0c-0.1,0.7-0.3,1.2-0.6,1.7s-0.4,1-0.5,1.6c-1.1,2.7-2.2,5.4-3.3,8
			C122.3,160.2,121.1,162.8,119.9,165.5z"/>
		<path class="st0" d="M170.1,77.7c1-1,2.2-1.9,3.5-2.9s2.7-1.8,4.2-2.5c1-0.3,2.1-0.5,3.2-0.6c1.1-0.1,2.1,0,3.2,0.4
			c0.2,0.3,0.7,0.5,1.3,0.6c1.1,0.8,2,2,2.5,3.3c0.5,1.4,1.1,2.8,1.7,4.1c-0.1,0.5,0,0.9,0.2,1.2c0.1,1.2,0.1,2.4,0.1,3.6
			c-0.1,1.2,0,2.4,0.1,3.6c0.1,0.5,0.1,1.1,0,1.7c0,0.6,0,1.2,0,1.8c-0.1,0.7-0.1,1.3-0.1,2s0,1.3,0,1.9c0,0.2,0,0.4,0.1,0.5
			c0.1,0.2,0.1,0.4,0.1,0.5c0,1-0.1,2-0.3,3s-0.2,2,0.1,3.1c0.1,0.2,0.3,0.5,0.4,0.7c0.1,0.2,0.3,0.4,0.5,0.6c2-1.4,3.6-3.1,4.8-5.3
			c1.2-2.1,2.2-4.5,2.9-7.2c0.1-0.3,0.3-0.5,0.5-0.5c0-0.4,0.1-0.8,0.4-1.2c0,1-0.1,2.2-0.4,3.6c-0.3,1.4-0.6,2.5-0.9,3.6
			c0.1,0.2,0,0.4,0,0.5c-0.1,0.1-0.1,0.3,0,0.5c-0.4,0.8-0.6,1.7-0.9,2.7c-0.2,1-0.7,1.7-1.4,2.1c0,0.2-0.1,0.4-0.2,0.5
			c-0.1,0.1-0.2,0.2-0.3,0.4c-0.4,0.3-0.7,0.6-1,0.9s-0.6,0.7-0.9,1.1c-0.5,0.2-0.9,0.5-1.4,0.8c-0.4,0.3-0.9,0.4-1.4,0.5
			c-1.3,0.1-2.3-0.2-3.1-0.9c-0.7-0.8-1.2-1.7-1.4-2.8c0-0.7-0.1-1.3-0.2-2c-0.2-0.7-0.2-1.4-0.2-2.1s0-1.4,0.1-2.1s0.2-1.4,0.3-2.2
			c0-1.9,0.1-4.1,0.3-6.4s0.2-4.6,0-6.8c-0.4-1-0.8-2-1.2-2.9s-1-1.7-1.7-2.4c-0.4-0.1-0.6-0.2-0.6-0.4c-0.8-0.1-1.6-0.2-2.2-0.1
			c-0.6,0-1.3,0.2-2,0.5c-0.5,0.5-1,0.9-1.7,1.2c-0.6,0.3-1.1,0.8-1.3,1.5c-0.2,0-0.3,0-0.4,0.1c-0.1,0.1-0.2,0.1-0.3,0.1
			c-0.2,0.4-0.6,0.8-1,1.2c-0.5,0.4-0.7,0.9-0.8,1.4c-0.4,0.2-0.6,0.5-0.8,0.9s-0.4,0.7-0.7,0.9c0.1,0.1,0.1,0.2,0.1,0.3
			c-0.1,0.1-0.1,0.2-0.1,0.3c-0.6,0.8-1.1,1.5-1.5,2.3c-0.4,0.7-0.8,1.5-1.3,2.4c-0.1,0.1-0.1,0.2,0,0.3c0,0.1,0,0.2,0,0.4
			c-0.5,0.8-0.9,1.7-1.3,2.7c-0.4,1-0.7,1.9-1,2.9c-0.1,0.2-0.1,0.4,0,0.5c0,0.1,0,0.3,0,0.6c-0.5,1.9-0.8,4-1.1,6.1
			c-0.2,2.2-0.7,4-1.4,5.5c0.2,0.5,0.1,1-0.1,1.4c-0.2,0.5-0.3,1-0.3,1.4c-0.2,0.2-0.3,0.5-0.5,0.9c-0.1,0.4-0.2,0.6-0.1,0.8
			c-0.4,0.9-0.8,1.8-1.2,2.7c-0.5,0.9-0.7,2-0.8,3.2c-0.2,0.4-0.3,0.7-0.5,1.1s-0.4,0.7-0.7,1c0.1,0.6-0.1,1.2-0.5,1.7
			c-0.5,0.5-0.9,1-1.2,1.3c-0.1,0.1-0.3,0.1-0.6-0.1c-0.3,0.1-0.5,0.3-0.6,0.7c-0.1-0.2-0.3-0.3-0.4-0.4c-0.1-0.1-0.3-0.2-0.3-0.5
			c-0.2,0.1-0.3,0.2-0.2,0.3c0,0.1,0,0.3,0,0.4c-0.5,0.1-0.9,0-1.3,0c-0.4-0.1-0.8-0.1-1.2-0.1c-0.1-0.1-0.1-0.2,0-0.4
			c0.1-0.1,0.1-0.3,0.1-0.5s-0.1-0.3-0.2-0.4c-0.1-0.1-0.2-0.2-0.2-0.4c0.1-0.3,0.1-0.6,0-0.9s-0.1-0.6,0-0.9s0.2-0.6,0.3-0.9
			c0.2-0.3,0.3-0.6,0.4-0.9c0.1-0.5,0.2-1,0.2-1.5s0.2-1.1,0.5-1.5c-0.1-1,0-2.1,0.4-3.1c0.4-1.1,0.5-2.2,0.5-3.5
			c0.1-0.1,0.2-0.3,0.2-0.5s0.1-0.3,0.3-0.4c-0.2-0.5-0.1-1,0.2-1.5c0.1-0.2,0-0.3-0.1-0.3s-0.1-0.1-0.1-0.2
			c0.3-1.2,0.6-2.4,0.8-3.6s0.4-2.5,0.6-3.9c0.1-0.4,0.2-0.8,0.3-1c0.1-0.3,0.1-0.6,0.1-1.1c0.2-1.1,0.5-2.1,0.7-3s0.4-1.9,0.5-3.1
			c0.3-1.2,0.6-2.5,0.9-4c0.3-1.5,0.5-2.8,0.6-4c0.3-0.7,0.5-1.5,0.5-2.4c0-1,0.2-1.7,0.5-2.3c0.1-0.2,0.1-0.3,0-0.4
			s-0.1-0.2-0.1-0.3c0.2-1.4,0.5-2.9,0.8-4.5c0.3-1.7,0.5-3.3,0.5-4.9c0.3-0.8,0.5-1.8,0.7-2.8s0.4-2,0.6-3.1
			c0.2-0.7,0.5-1.4,0.6-2.1c0.2-0.7,0.3-1.5,0.5-2.3c0.1-0.1,0.2-0.1,0.2-0.3c0-0.1,0.1-0.2,0.2-0.3c0.1-1.4,0.4-2.8,0.7-4.2
			c0.4-1.4,0.6-2.8,0.7-4.1c0.4-1.1,0.6-2.1,0.9-3.1c0.2-1,0.5-2,0.9-3c0-0.3,0-0.5-0.1-0.5c-0.1-0.1,0-0.2,0.1-0.1
			c0.1,0,0.2,0,0.3-0.1c0.1-0.7,0.3-1.4,0.5-1.9c0.2-0.6,0.4-1.2,0.7-1.8c0.2,0.1,0.4,0,0.5-0.2c0.4,0.1,0.7,0.3,1.1,0.5
			c0.4,0.2,0.8,0.3,1.2,0.1c0.6,0.3,1.1,0.7,1.4,1.2c0.4,0.5,0.7,1,1.1,1.5c0.1,0.5,0.1,0.9,0,1.1c-0.1,0.3-0.1,0.6,0,1
			c-0.7,1.3-1,2.7-1,4.2s-0.1,3.2-0.2,4.9c0.1,0.2,0,0.3-0.1,0.3s-0.2,0.1-0.2,0.3c0.1,0.8,0.1,1.5,0.1,1.9c-0.1,0.5-0.2,1-0.5,1.6
			c0,1.4-0.1,2.6-0.4,3.7c-0.3,1.1-0.5,2.3-0.6,3.5c0.1,0.1,0,0.2-0.1,0.2s-0.2,0.1-0.2,0.2c-0.4,1.8-0.6,3.6-0.6,5.3
			c-0.1,1.7-0.4,3.4-1.1,5.1c0,0.7,0,1.3,0,1.8C170.5,76.7,170.3,77.2,170.1,77.7z"/>
	</g>
	<g>
		<path class="st0" d="M89.1,157.3c0.2,0,0.3,0.1,0.4,0.2s0.1,0.3,0.2,0.4c0.3-0.1,0.7-0.3,1-0.6c0.3-0.2,0.6-0.2,0.9,0.1
			c0,0.3-0.1,0.5-0.4,0.5s-0.5,0.1-0.7,0.4c-0.2-0.1-0.3,0.1-0.3,0.5c0.2,0,0.3-0.2,0.3-0.5c0.6,0.1,0.9,0.1,0.9,0
			c0.1-0.1,0.2-0.2,0.6-0.3c-0.2-0.2-0.3-0.4-0.1-0.5c0.2-0.1,0.1-0.2-0.3-0.2V157c0.2-0.4,0.6-0.5,1.2-0.6c0.6,0,1-0.3,1.2-0.7
			c-0.1-0.2-0.3-0.2-0.4-0.1c-0.2,0.2-0.4,0.2-0.6,0.1c0.2-0.2,0.4-0.4,0.6-0.4s0.5-0.1,1.1-0.2c0,0.1,0,0.2-0.2,0.2
			c-0.1,0-0.2,0.1-0.2,0.2c1.2-0.3,2.6-0.8,4.1-1.4c1.5-0.7,3.1-1.1,4.7-1.5c-0.8,0.6-1.7,1.1-2.9,1.3c-1.2,0.3-2.2,0.7-3.1,1.4
			c-0.3,0-0.6,0.1-0.7,0.1c-0.1,0.1-0.3,0.2-0.7,0.3c0.1,0.2,0.3,0.3,0.4,0.2c0.2-0.1,0.4-0.1,0.6,0.1c0.4-0.1,0.7-0.4,0.8-0.7
			c0,0.2,0.2,0.3,0.5,0.1c0.3-0.1,0.6-0.3,0.7-0.4c0.1,0,0.2,0,0.2-0.1s-0.1-0.1-0.2-0.1c0.1-0.2,0.3-0.3,0.6-0.1
			c0.3,0.2,0.6,0.2,0.9,0c0,0.1,0.1,0.2,0.2,0.2c-0.1,0.5-0.2,0.7-0.3,0.6c-0.1-0.1-0.3,0-0.7,0.3c0.2-0.2,0.3-0.3,0.2-0.3
			c-0.1,0.1-0.2,0-0.4-0.2c0.2-0.1,0.3-0.2,0.2-0.2c-0.1,0-0.2,0.1-0.2,0.2c-0.1,0-0.2,0.2-0.1,0.7c-0.2-0.2-0.4-0.2-0.4,0.1
			s-0.2,0.4-0.6,0.3c-0.2,0-0.3-0.1-0.4-0.5c-0.1,0-0.2,0-0.2,0.1s-0.1,0.1-0.2,0.1v-0.2c-0.1,0-0.2,0-0.2,0.1s0.1,0.1,0.2,0.1
			c0,0.1,0,0.2,0.1,0.2s0.1,0.1,0.1,0.3c-0.2-0.1-0.3,0-0.3,0.4c-0.2-0.3-0.4-0.4-0.5-0.1c-0.1,0.2-0.3,0.4-0.7,0.4
			c0.2-0.2,0.3-0.4,0.1-0.3c-0.1,0-0.2-0.1-0.2-0.3c-0.2,0.2-0.3,0.3-0.3,0.2s-0.1-0.2-0.3-0.1c0,0.2,0.1,0.4,0.2,0.5
			s0.2,0.3,0.2,0.5c-0.2,0.1-0.5,0.1-0.8,0s-0.4,0-0.3,0.4c-0.2-0.1-0.4-0.1-0.5-0.1s-0.1-0.1,0.1-0.3c-0.2-0.1-0.3,0-0.3,0.2
			s-0.1,0.2-0.3,0c-0.1-0.2-0.2-0.3-0.3-0.2c0,0.1-0.1,0.2-0.2,0.2c0.1,0.2,0.2,0.3,0.3,0.2c0.1-0.1,0.1-0.2,0.2-0.2
			c0,0.6-0.3,0.9-1,0.9c0-0.1,0-0.2,0.2-0.3c0.1-0.1,0.2-0.2,0.2-0.3c-0.2-0.1-0.4,0-0.7,0.3c-0.2,0.3-0.1,0.4,0.4,0.2
			c-0.4,0.2-0.8,0.4-1,0.6c-0.2,0.1-0.5,0.1-0.9-0.1c-0.2,0.1-0.2,0.2-0.1,0.3c0.2,0.1,0.2,0.2-0.1,0.3c-0.3,0.1-0.6,0.1-0.7,0
			s-0.3-0.2-0.5-0.3c0.3,0.5,0,0.9-0.9,1.1c-0.8,0.2-1.5,0.4-2.1,0.8c0-0.1,0-0.2-0.1-0.2s-0.1,0.1-0.1,0.2c-0.7,0.3-1,0.5-1.1,0.7
			h-0.5c0-0.2-0.2-0.3-0.5-0.3c-0.2,0-0.2,0.1-0.1,0.3c0.2,0.2,0.4,0.2,0.6,0.1c-0.1,0.1-0.4,0.3-0.9,0.6s-0.7,0.3-0.8,0
			c-1,0.8-2,1.5-3.1,1.9s-2.2,0.9-3.3,1.5c-0.1,0-0.2,0.1-0.2,0.2c-0.2-0.2-0.5-0.2-0.7,0s-0.3,0.5-0.1,0.9
			c-0.2-0.2-0.5-0.3-0.8-0.1c-0.3,0.1-0.5,0.3-0.6,0.5c-0.2-0.2-0.4-0.2-0.4,0s-0.2,0.3-0.4,0.4c-0.1-0.2-0.2-0.3-0.2-0.2
			s0.1,0.2,0.2,0.2c-0.2,0.6-0.6,0.8-1.1,0.7c-0.6-0.1-0.8,0.2-0.8,0.7c-0.4,0.1-0.7,0.2-0.8,0c-0.1-0.1-0.2-0.1-0.4,0
			c-0.2,0-0.3,0-0.2,0.1c0.1,0,0.2,0.2,0.2,0.4c-1.5,0.7-2.9,1.5-4.2,2.7c-1.2,1.1-2.5,2-3.8,2.7c-1.5,1.6-3,3.1-4.4,4.6
			s-2.7,3.2-3.7,5.2c0,0.8-0.1,1.2-0.4,1.2c-0.3,1.3-0.2,2.3,0.2,3.2s0.9,1.9,1.5,3c3.1,4,7.1,6.9,12.2,8.6
			c5.3,2.2,10.4,3.4,15.4,3.6c4.9,0.2,10.1,0,15.6-0.6c1.6-0.3,3.1-0.6,4.6-0.9c1.5-0.3,3.1-0.5,4.8-0.6c2.7-0.7,5.2-1.5,7.7-2.2
			c2.5-0.8,5-1.5,7.6-2.2c1.5-0.8,3.1-1.4,4.7-2c1.6-0.5,3.3-1.2,5.2-1.8c4.2-1.8,8.2-3.8,12.1-5.9c3.9-2.1,7.7-4.1,11.4-6.2
			c1.5-1.3,3.2-2.5,5-3.4s3.5-2.1,5-3.4c5.8-3.6,11.2-7.6,16.2-11.9c5-4.3,9.8-9,14.5-13.9c1.4-1.4,2.7-2.9,3.9-4.4s2.4-3,3.5-4.7
			c2.1-2.5,4-5.1,5.7-7.9c1.7-2.7,3.1-5.8,4.3-9.1c0.5-0.9,0.9-1.9,1.2-2.8s0.8-1.8,1.5-2.8c0.7,0.2,1.2,0.4,1.6,0.8
			c0.4,0.3,0.7,0.7,1.1,1.1c0,1.4-0.2,2.7-0.4,4.2c-0.2,1.4-0.5,2.9-1,4.4c-0.3,0.4-0.7,1.1-1.1,2.3c-0.1,0-0.2,0-0.2,0.1
			c-0.1,0.1-0.2,0.1-0.4,0.1c0,0.2,0,0.3,0.1,0.3s0.1,0.1,0.1,0.3c-1.4,2.3-3.1,4.9-5,7.7s-3.9,5.4-6.2,7.6
			c-0.1-0.2-0.2-0.3-0.2-0.2s0.1,0.2,0.2,0.2c-0.2,0.4-0.5,0.8-0.9,1.3s-0.8,0.7-1.2,0.7c0,0.2,0,0.4-0.1,0.4
			c-0.1,0.1-0.1,0.2,0,0.4c-0.2-0.4-0.4-0.5-0.4-0.1c0,0.3-0.2,0.5-0.6,0.4c0.2,0.3,0.3,0.5,0.2,0.7c-0.4-0.3-0.7-0.2-1,0.3
			s-0.6,1-0.8,1.5c-0.2-0.2-0.3-0.3-0.3-0.2c0.1,0.1,0,0.2-0.2,0.4c-0.1-0.2-0.2-0.3-0.2-0.2s0.1,0.2,0.2,0.2v0.3
			c-0.1,0.2-0.3,0.2-0.5,0s-0.3-0.1-0.3,0.4c0.4-0.3,0.5-0.2,0.3,0.1c-0.3,0.3-0.4,0.6-0.5,0.8c-0.1,0-0.2,0-0.2-0.2
			c0-0.1-0.1-0.2-0.2-0.2c0,0.2-0.1,0.5-0.2,0.8c-0.2,0.3-0.4,0.5-0.7,0.6c0-0.1,0-0.2-0.1-0.2s-0.1,0.1-0.1,0.2
			c-0.3,0-0.5,0.1-0.5,0.4c0,0.1,0,0.2,0.1,0.2s0.1-0.1,0.1-0.2c0.2,0.2,0.2,0.4-0.1,0.6c-0.3,0.2-0.5,0.2-0.8,0
			c0,0.1,0,0.2,0.1,0.2s0.1,0.1,0.1,0.3c-0.1,0-0.2,0-0.3-0.2c-0.1-0.1-0.1,0-0.2,0.2c-0.4,0-0.8,0.3-1.1,0.8s-0.6,0.6-1.1,0.1
			c-0.2,0.1-0.2,0.2,0,0.3s0.2,0.3,0,0.5l-0.2-0.2v-0.2c-0.4,0.5-1,1.2-1.8,2.2s-1.4,1.7-2,2.2c-0.4,0.4-0.9,0.7-1.5,0.9
			c-0.5,0.3-0.9,0.4-1,0.6c-0.9,0.6-1.6,1.3-2.1,2.1s-1.2,1.3-1.9,1.7c0-0.2-0.1-0.3-0.2-0.3c0-0.1-0.1-0.2-0.2-0.2
			c-0.1,0-0.2,0.2-0.1,0.5c0.1,0,0.2-0.1,0.1-0.3h0.2c0,0.2,0.1,0.3,0.2,0.3c-3,2.5-6.1,5-9.4,7.3c-3.3,2.3-6.3,4.5-9.1,6.6
			c-0.1,0-0.2,0-0.3-0.2c-0.1-0.1-0.1-0.2-0.3-0.2c0.3,0.4,0.1,0.7-0.6,0.7c-0.6,0-0.9,0.3-0.9,0.9c-0.1,0-0.2,0-0.2-0.1
			s-0.1-0.1-0.2-0.1c0.1-0.1,0.1-0.4,0.1-0.9c-0.2-0.1-0.4,0-0.4,0.4c0,0.3,0.1,0.5,0.3,0.5c-0.5,0.6-1.1,1-1.6,1.1
			c-0.6,0.1-1,0.5-1.3,1.1c-0.1,0-0.2-0.1-0.2-0.3c-0.2,0.4-0.7,0.7-1.4,1.1c-0.7,0.4-1.2,0.5-1.4,0.4c-0.2,0.6-0.6,0.9-1.1,1.1
			c0-0.2,0-0.3,0.1-0.3s0.1-0.1,0.1-0.2c-0.3,0-0.5,0.1-0.5,0.4c-0.1,0-0.2,0.1-0.2,0.2h0.2c0,0.3-0.1,0.5-0.5,0.5
			c0-0.2-0.1-0.4-0.2-0.4c-0.1-0.1-0.2-0.2-0.2-0.4c-0.2-0.1-0.3,0-0.3,0.2s-0.1,0.3-0.3,0.2c0,0.2,0.2,0.3,0.5,0.3
			c0,0.2,0.1,0.3,0.2,0.3c-0.5,0.3-1.1,0.6-1.6,0.9c-0.5,0.4-1.1,0.7-1.8,0.9v-0.7c-0.4,0.2-0.8,0.4-1.2,0.5c-0.3,0.1-0.7,0.3-1,0.8
			h-0.5c0,0.1,0.2,0.2,0.5,0.1c0,0.1,0.1,0.2,0.2,0.2c-0.1,0.2-0.2,0.3-0.2,0.2c-0.1-0.1-0.2,0-0.4,0.2c-0.1-0.2-0.2-0.3-0.3-0.2
			c0,0.1-0.1,0.2-0.2,0.2c0,0.1,0.1,0.2,0.3,0.1c-0.4,0.5-0.9,0.7-1.3,0.6c0-0.1,0-0.2-0.1-0.2s-0.1,0.1-0.1,0.2
			c-0.4,0.5-1.1,0.9-2,1.1v-0.2c0.1,0,0.2-0.2,0.1-0.5c0.2,0.2,0.4,0.2,0.3,0c0-0.1-0.1-0.2-0.2-0.2c-0.1,0-0.2,0.1-0.2,0.2
			c-0.3,0.1-0.4,0.3-0.1,0.5c-0.1,0-0.2,0-0.3-0.1s-0.1-0.1-0.3-0.1s-0.2,0.1-0.1,0.3c0.2,0.2,0.2,0.4,0.1,0.6
			c-0.2,0-0.3-0.1-0.3-0.3s0-0.4-0.3-0.5c0.1,0.3,0.1,0.5-0.2,0.4c-0.3,0-0.6,0.1-1.1,0.3c-0.1,0.2,0,0.3,0.2,0.3s0.3,0.1,0.2,0.3
			c-0.2-0.2-0.5-0.2-0.7,0s-0.4,0.5-0.6,0.7c-0.2,0-0.3-0.1-0.4-0.3c-0.1,0.3-0.3,0.5-0.6,0.6s-0.6,0.2-1.1,0.3
			c-0.4-0.3-0.5-0.5-0.4-0.5c-0.2-0.1-0.3-0.1-0.2,0.1c0.1,0.2,0,0.3-0.2,0.3c0,0.2,0.1,0.3,0.3,0.1c0.2-0.1,0.4-0.1,0.5,0
			c0,0.2-0.1,0.3-0.2,0.3c-0.2,0-0.2,0-0.1,0.3h-0.7c0.1-0.3,0.1-0.4-0.1-0.2c-0.2,0.2-0.1,0.3,0.1,0.2c-0.2,0.1-0.4,0.2-0.5,0.4
			c-0.1,0.1-0.3,0.2-0.7,0.2c0-0.1,0-0.2,0.1-0.2s0.1-0.1,0.1-0.2c0.2,0,0.3,0,0.3-0.1s0.1-0.1,0.3-0.1c-0.2-0.2-0.4-0.4-0.4-0.5
			c-0.1,0-0.1,0.1-0.1,0.3c0.1,0.2,0,0.3-0.2,0.3c-0.1-0.2-0.2-0.2-0.3-0.1c-0.1,0.2-0.3,0.2-0.5,0.1c0,0.2,0.1,0.3,0.3,0.3
			s0.2,0.1,0.1,0.3c-0.3,0-0.5,0.1-0.5,0.4c-0.2,0-0.3-0.1-0.4-0.3c0.1,0,0.2-0.1,0.2-0.2c-0.1,0-0.2,0.1-0.2,0.2
			c-0.2,0.2-0.5,0.5-1,0.7c-0.4,0.2-0.8,0.3-1.2,0.1c0,0.2-0.2,0.5-0.7,0.8s-0.8,0.3-0.9,0c-0.2,0-0.3,0.2-0.1,0.4
			c0.1,0.3,0,0.3-0.3,0.1c0-0.1-0.1-0.2-0.2-0.2c-0.1-0.2-0.2-0.3-0.2-0.2s0.1,0.2,0.2,0.2v0.2c-0.2-0.1-0.4,0-0.6,0.3
			c-0.2,0.3-0.2,0.2-0.3-0.2c0.1,0,0.2-0.1,0.1-0.3c-0.1,0-0.2,0.1-0.1,0.3c-0.6,0-0.6,0.1-0.1,0.3c-0.4,0.4-0.9,0.5-1.3,0.3
			c-0.5-0.1-0.8,0-1,0.5c-0.4,0.5-0.8,0.5-1,0.1c-0.1,0-0.2,0.2-0.1,0.7c-0.1,0-0.2,0-0.3-0.2c-0.1-0.1-0.1-0.2-0.3-0.2
			s-0.3,0-0.2,0.1c0.1,0,0.2,0.2,0.2,0.4c-1.1-0.4-1.9-0.2-2.3,0.6c-0.1,0-0.2,0-0.2-0.1s-0.1-0.1-0.2-0.1v-0.3
			c-0.1,0-0.2,0.1-0.2,0.2c0,0.1,0.1,0.2,0.2,0.2c-0.2,0.1-0.4,0.2-0.6,0.4c-0.2,0.1-0.4,0.2-0.7,0.2c0.2-0.2,0.4-0.4,0.5-0.5
			s0.3-0.2,0.5-0.5c-0.1-0.1-0.3,0-0.7,0.2c-0.3,0.2-0.5,0.5-0.5,0.9c-0.6,0-1,0.1-1.4,0.3s-0.9,0.4-1.4,0.5
			c0.2-0.2,0.1-0.3-0.2-0.3c0-0.2-0.1-0.3-0.2-0.3c-0.4,0.2-0.4,0.4,0.2,0.3v0.3c-0.8,0.3-1.3,0.4-1.7,0.3c0.2-0.2,0.3-0.4,0.3-0.5
			h-0.7c0.2,0.2,0.4,0.4,0.4,0.5c-0.2-0.1-0.6,0.1-1.1,0.6s-0.8,0.4-1.1-0.1c-0.1,0.5-0.3,0.6-0.7,0.5c-0.4-0.1-0.7-0.1-0.9,0.1
			c-1.5,0.7-3,1-4.3,1.1s-2.7,0.4-4.2,1.1c-0.2,0-0.3-0.1-0.4-0.3c0-0.2-0.1-0.3-0.3-0.1c-0.1-0.3-0.1-0.5,0.1-0.5s0.3,0,0.4,0.1
			c0-0.3-0.1-0.5-0.3-0.4c-0.2,0.1-0.4,0.1-0.6,0.1c0,0.2,0,0.3,0.1,0.3s0.1,0.1,0.1,0.3h0.2c0.1,0.3,0.1,0.5-0.1,0.5s-0.4,0-0.7,0
			c-0.2-0.1-0.3-0.2-0.1-0.3c0.2-0.1,0.1-0.2-0.1-0.3c-0.4,0-0.6,0.1-0.3,0.4c0.2,0.2,0.2,0.4,0,0.5c-0.4-0.2-0.6-0.2-0.8-0.1
			c-0.2,0.1-0.3,0.1-0.3-0.2c-0.1,0.2-0.4,0.4-0.9,0.6c-0.5,0.1-0.9,0.2-1.1,0.1c0.2-0.1,0.3-0.2,0.2-0.2c-0.1,0-0.2,0.1-0.2,0.2
			c-1.6,0.3-3.5,0.5-5.9,0.7c-2.4,0.1-4.5,0.3-6.4,0.5c-0.2-0.3-0.6-0.4-1.2-0.3c-0.6,0.1-1.1,0.2-1.5,0.3c-1.9-0.1-4-0.4-6.2-0.7
			c-2.2-0.4-4.2-0.8-5.9-1.3c-0.8-0.2-1.6-0.3-2.4-0.5c-0.8-0.1-1.7-0.3-2.6-0.6c-1.1-0.4-2.2-0.9-3.1-1.4c-0.9-0.6-1.9-1.1-2.8-1.6
			c-0.2-0.1-0.4-0.1-0.6-0.1s-0.4,0-0.6-0.1c-0.7-0.4-1.3-0.9-1.8-1.4s-1.1-1.1-1.8-1.6c-3.4-2.4-5.7-5.7-7-9.9
			c-0.1-1.2-0.1-2.4,0-3.5s0.2-2.4,0.5-3.8c1.8-3.6,4.1-6.7,6.9-9.2c2-1.9,4.2-3.7,6.6-5.3c2.3-1.6,4.8-2.9,7.5-4
			c2.2-1.4,4.7-2.7,7.6-4C84,158.9,86.7,157.9,89.1,157.3z M71.5,169.2c-0.2,0-0.3,0.1-0.3,0.2C71.4,169.3,71.5,169.3,71.5,169.2z
			 M76.8,166.3h0.7c0,0.2-0.3,0.4-0.8,0.4v-0.2C76.7,166.5,76.8,166.4,76.8,166.3z M80.4,164.9c-0.1,0.3-0.1,0.3-0.2,0
			S80.3,164.6,80.4,164.9z M83.4,207.9c-0.2,0-0.3,0.1-0.3,0.2C83.3,208.1,83.4,208,83.4,207.9z M84.5,208c-0.3,0.2-0.1,0.3,0.4,0.1
			C84.9,207.8,84.8,207.8,84.5,208z M86.3,208.3c0,0.3,0.1,0.3,0.2,0C86.3,207.9,86.3,207.9,86.3,208.3z M86.4,206.7
			c0.2,0,0.3-0.1,0.3-0.2C86.5,206.6,86.4,206.6,86.4,206.7z M87.1,207c-0.1-0.3-0.2-0.3-0.2,0C86.9,207.4,87,207.4,87.1,207z
			 M87,208.2c0.2,0,0.3-0.1,0.3-0.2C87.1,208,86.9,208.1,87,208.2z M87,206.2c0,0.3,0.3,0.5,0.7,0.5c0.1-0.2,0-0.3-0.2-0.2
			C87.3,206.5,87.1,206.4,87,206.2z M84.7,160.3c0.1,0,0.2-0.1,0.2-0.2c-0.1,0-0.2,0-0.3-0.2c-0.1-0.1-0.1-0.1-0.1,0.2
			C84.5,160.2,84.6,160.3,84.7,160.3z M85.1,160.9c-0.3,0-0.5,0.1-0.5,0.2C84.9,161.1,85.1,161.1,85.1,160.9z M88.8,208.1v-0.2
			c-0.2,0.2-0.3,0.3-0.4,0.1s-0.3-0.2-0.6-0.2c-0.2,0.2-0.3,0.4-0.3,0.5c0.3,0,0.5-0.1,0.5-0.1c0-0.1,0.1,0,0.4,0.2
			C88.5,208.2,88.7,208.1,88.8,208.1c-0.1,0.3-0.1,0.4,0.1,0.2C89.1,208.2,89,208.1,88.8,208.1z M87.9,207c-0.1-0.3-0.2-0.3-0.2,0
			C87.7,207.3,87.8,207.3,87.9,207z M85.7,159.6c-0.5-0.2-0.6-0.1-0.5,0.2C85.3,160.1,85.5,160,85.7,159.6z M88.4,206.3
			c-0.3,0-0.5,0.1-0.5,0.4C88.3,206.6,88.5,206.5,88.4,206.3z M88.7,206.9c-0.2,0-0.3,0.1-0.3,0.2C88.6,207.1,88.7,207,88.7,206.9z
			 M86,158.9c0,0.3,0.1,0.3,0.2,0C86,158.5,86,158.5,86,158.9z M86.2,159.4c-0.1-0.3-0.2-0.3-0.2,0S86.1,159.7,86.2,159.4z
			 M86.4,159.9c-0.2,0.1-0.2,0.2,0,0.4h0.2C86.7,160,86.6,159.9,86.4,159.9z M89,207c0.1,0.3,0.2,0.3,0.3,0.1
			C89,206.7,88.9,206.7,89,207z M86.6,161.5c0,0.1,0,0.2-0.1,0.2s-0.1-0.1-0.1-0.2H86.6z M87,158.8h-0.3v0.3H87V158.8z M89.6,206.4
			c0,0.1,0.1,0.2,0.2,0.2s0.2-0.1,0.2-0.2c-0.1,0-0.2,0-0.3-0.2C89.6,206.1,89.5,206.2,89.6,206.4z M89.1,157.8
			c-0.3,0.2-0.7,0.3-1.2,0.1s-0.6-0.1-0.5,0.4c0.2-0.4,0.3-0.4,0.3-0.1c0,0.3,0.1,0.4,0.4,0.4c0.1-0.2,0.3-0.3,0.7-0.2
			S89.3,158.3,89.1,157.8z M87.6,160.6c0.3,0,0.5-0.1,0.5-0.2C87.8,160.5,87.6,160.5,87.6,160.6z M90.3,208.2c0,0.2,0.3,0.2,0.8,0
			C90.6,208,90.3,208,90.3,208.2z M92.7,207.9c-0.2,0-0.4,0-0.5-0.1s-0.3,0-0.5,0.3c0.2,0,0.4,0.1,0.4,0.2c0.1,0.2,0.2,0.2,0.4,0.1
			c0-0.1,0-0.2,0.1-0.3C92.7,208.1,92.7,208,92.7,207.9z M89.1,157.3c-0.1,0-0.2,0-0.2-0.2C88.9,157.1,89,157.1,89.1,157.3z
			 M89.7,157.2c-0.2-0.2-0.2-0.2,0.1-0.3C89.9,157.3,89.9,157.4,89.7,157.2z M93.1,206.9c0.2-0.1,0.3-0.2,0.2-0.2
			C93.2,206.7,93.1,206.7,93.1,206.9c-0.1,0-0.2,0-0.2-0.2h-0.3c-0.2,0.2-0.2,0.4,0.1,0.4C93,207.2,93.1,207.1,93.1,206.9z
			 M89.8,157c0.1-0.3,0.6-0.4,1.5-0.3c-0.2,0.2-0.4,0.3-0.6,0.2C90.5,156.8,90.2,156.8,89.8,157z M90,157.5c0-0.1,0.1-0.2,0.3-0.2
			C90.3,157.4,90.2,157.4,90,157.5z M94,206.8c0,0.1,0.1,0.2,0.2,0.2s0.2-0.1,0.2-0.2c-0.1,0-0.2,0-0.3-0.2
			C94,206.5,94,206.6,94,206.8z M95.7,208.1c0.1,0,0.2-0.1,0.2-0.2c0.2-0.1,0.3-0.2,0.2-0.2c-0.1,0-0.2,0.1-0.2,0.2h-0.3
			c0-0.2-0.3-0.3-0.8-0.2s-0.7,0.3-0.7,0.6c0.2,0,0.4-0.1,0.7-0.2c0.2-0.1,0.5-0.2,0.8-0.2C95.6,208,95.6,208.1,95.7,208.1z
			 M91.5,160.1C91.7,159.8,91.7,159.8,91.5,160.1C91.3,160.3,91.3,160.3,91.5,160.1z M94.4,206.1c0.2-0.1,0.3-0.2,0.2-0.2
			C94.5,205.9,94.4,206,94.4,206.1c-0.2-0.2-0.4-0.2-0.3,0C94.1,206.3,94.2,206.3,94.4,206.1z M91.9,156.3c0.1,0.3,0.1,0.4-0.1,0.3
			C91.7,156.4,91.7,156.3,91.9,156.3z M94.7,206.8c0.2,0.2,0.4,0.2,0.4,0.1c0-0.2,0.2-0.2,0.4,0.1c0.1-0.3,0-0.5-0.3-0.5
			C94.9,206.4,94.8,206.5,94.7,206.8z M91.9,156.3c-0.1-0.4-0.1-0.5,0.2-0.3C92.5,156.3,92.4,156.4,91.9,156.3z M94.8,206.1
			c0,0.3,0.1,0.3,0.2,0C94.8,205.7,94.8,205.7,94.8,206.1z M92.2,157.8c0.2-0.1,0.4-0.1,0.6,0s0.3,0,0.2-0.2
			c-0.2,0.1-0.3,0.1-0.3-0.1s-0.1-0.2-0.4-0.2C92.3,157.5,92.3,157.7,92.2,157.8z M95.5,206.2c0,0.3,0.1,0.3,0.2,0
			C95.5,205.9,95.4,205.9,95.5,206.2z M93.5,157.2c0.2,0,0.4,0,0.4,0.1c0.1,0.1,0.1,0,0.2-0.3c0.2,0.1,0.4,0.1,0.5-0.1
			c0.1-0.2,0-0.3-0.2-0.2c0,0.1,0,0.2-0.2,0.2c-0.1,0-0.2,0.1-0.2,0.2c-0.1,0-0.2-0.1-0.2-0.3c-0.2-0.1-0.3-0.1-0.3,0.1
			S93.6,157.1,93.5,157.2c-0.4,0-0.7,0.1-0.7,0.2c0.2-0.1,0.4-0.1,0.5,0.1C93.5,157.7,93.5,157.6,93.5,157.2z M96.1,206.4
			c-0.2,0-0.3,0.1-0.4,0.4c0.6,0,0.9-0.2,1-0.4C96.4,206.5,96.2,206.5,96.1,206.4z M96.8,207.8c0.3,0.1,0.5,0,0.7-0.2
			c0.2,0.2,0.3,0.2,0.3-0.1s-0.1-0.2-0.3,0.1c-0.1,0-0.2,0-0.3-0.2c-0.1-0.1-0.1-0.2-0.3-0.2c-0.1,0.2-0.2,0.3-0.2,0.3
			c-0.1-0.1-0.2-0.1-0.4-0.1c0,0.2,0,0.4-0.1,0.4c-0.1,0.1,0,0.1,0.3,0.2C96.5,207.8,96.5,207.7,96.8,207.8z M97.2,206.4
			c-0.3-0.1-0.4-0.1-0.2,0.1C97.1,206.7,97.2,206.7,97.2,206.4c0.4,0.3,0.5,0.3,0.5,0C97.3,206.1,97.2,206.1,97.2,206.4z
			 M94.6,155.3c0-0.1,0-0.2,0.2-0.2C94.9,155.1,94.8,155.2,94.6,155.3z M97.5,205.9c0.2,0,0.3-0.1,0.3-0.2
			C97.6,205.7,97.5,205.8,97.5,205.9z M95.1,156.6c0.2,0.2,0.3,0.1,0.4-0.1c-0.1,0-0.2,0-0.2-0.2c0-0.1-0.1-0.2-0.2-0.2
			C94.9,156.3,94.9,156.4,95.1,156.6z M97.8,206.4c0.2,0.2,0.4,0.2,0.5,0.1c0.1-0.2,0.3-0.2,0.5,0.1c0.1-0.2,0-0.4-0.4-0.4
			C98,206.1,97.8,206.2,97.8,206.4z M97.1,154.3c-0.6,0.5-1.3,0.8-2,1C95.6,154.7,96.3,154.4,97.1,154.3z M98.3,205.5H98v0.3h0.3
			V205.5z M98.1,207.6c0.2,0,0.3-0.1,0.3-0.2C98.2,207.4,98.1,207.5,98.1,207.6z M99.5,206.3C99.7,206.1,99.7,206.1,99.5,206.3
			C99.3,206.6,99.3,206.6,99.5,206.3z M99.6,207.5c0.2,0,0.3-0.1,0.3-0.2C99.7,207.3,99.6,207.4,99.6,207.5z M97.1,157.6
			c0.1,0,0.1,0.1-0.2,0.2C96.9,157.6,97,157.6,97.1,157.6z M100.4,205.9c0,0.2-0.1,0.3-0.2,0.3c-0.2,0-0.3,0-0.2,0.1
			c0.2,0.1,0.4,0.1,0.6,0C100.6,206.1,100.6,206,100.4,205.9z M97.1,154.3c0-0.1,0-0.2,0.2-0.2C97.3,154.2,97.3,154.2,97.1,154.3z
			 M100.4,207.3c-0.1-0.2-0.2-0.2-0.2,0.1C100.1,207.7,100.2,207.6,100.4,207.3z M100.3,205.6c-0.1-0.3-0.2-0.3-0.2,0
			C100.2,205.9,100.2,205.9,100.3,205.6z M97.6,154.1C97.8,153.9,97.8,153.9,97.6,154.1C97.3,154.4,97.3,154.4,97.6,154.1z
			 M97.6,155.5c0-0.1,0-0.2,0.2-0.2C97.9,155.3,97.9,155.4,97.6,155.5z M100.9,207.2c-0.2-0.3-0.3-0.3-0.3-0.1
			C100.8,207.5,100.8,207.5,100.9,207.2z M101.1,206.2c-0.2-0.3-0.3-0.3-0.3-0.1C100.9,206.4,101,206.5,101.1,206.2z M103.6,205.9
			c0.3-0.4,0.9-0.5,1.8-0.4s1.5-0.1,1.9-0.7c-0.5-0.2-1-0.1-1.5,0.2s-0.9,0.2-1.2-0.4c0.1,0.4-0.1,0.7-0.8,0.8
			c-0.7,0.1-1.1,0-1.2-0.2c0,0.2-0.1,0.4-0.5,0.5c-0.3,0.1-0.6,0.1-0.8,0c0.3,0.4,0.6,0.5,1,0.2
			C102.7,205.8,103.1,205.7,103.6,205.9z M101.8,206.7c0.1,0.2,0,0.3-0.2,0.4c-0.3,0-0.3,0.1-0.1,0.3c0-0.1,0.1-0.2,0.3-0.4
			C102,206.9,102,206.8,101.8,206.7z M98.5,155.8c0,0.3,0.1,0.3,0.2,0C98.5,155.4,98.5,155.4,98.5,155.8z M98.8,155.1v0.2
			c-0.1,0-0.2,0-0.2-0.1C98.6,155.1,98.7,155.1,98.8,155.1z M102.3,207.2c-0.1-0.3-0.2-0.3-0.2,0
			C102.1,207.5,102.2,207.5,102.3,207.2z M99.2,153.4c0.1-0.5,0.1-0.4,0,0.2C99.1,153.9,99.1,153.8,99.2,153.4z M103,207.1
			c0.2,0,0.2-0.1,0.1-0.3C102.9,206.7,102.8,206.8,103,207.1c-0.2,0-0.3-0.1-0.3-0.2c0-0.2,0-0.3-0.3-0.2c-0.2,0.4-0.1,0.6,0.3,0.7
			S103.2,207.5,103,207.1z M100,155.4C100.2,155.1,100.2,155.1,100,155.4C99.8,155.6,99.8,155.6,100,155.4z M100.6,156.7
			c-0.1,0-0.2,0-0.2-0.1s-0.1-0.1-0.2-0.1c0.1-0.2,0.2-0.3,0.4-0.3C100.8,156.3,100.8,156.4,100.6,156.7z M100.3,155
			c0-0.1,0-0.2,0.1-0.2s0.1,0.1,0.1,0.2H100.3z M104.1,206.6c0.2,0,0.4,0,0.4,0.1c0.1,0.1,0.1,0.1,0.3,0.1c0-0.3-0.1-0.5-0.3-0.5
			C104.4,206.2,104.2,206.3,104.1,206.6c-0.2,0-0.3,0.1-0.3,0.2c-0.2-0.2-0.3-0.1-0.3,0.2c-0.1,0-0.2,0-0.2,0.1s0.1,0.1,0.2,0.1
			c0,0.2,0.1,0.3,0.3,0.2c0.2-0.1,0.2-0.3,0.1-0.5C104,207,104.1,206.9,104.1,206.6z M100.7,155.1h-0.2v-0.2
			C100.6,155,100.7,155,100.7,155.1z M100.7,155.1c0.1,0.1,0.5,0.1,1,0.1c-0.2,0.2-0.6,0.4-1.2,0.6c0-0.1,0-0.2,0.1-0.3
			C100.7,155.5,100.7,155.4,100.7,155.1z M103.5,207.1v-0.2c0.1,0,0.2,0,0.2,0.1C103.6,207.1,103.6,207.1,103.5,207.1z M102,154.7
			c0,0.1,0,0.2-0.2,0.2c-0.1,0-0.2,0.1-0.2,0.2c-0.2,0-0.3-0.1-0.2-0.2C101.6,154.7,101.8,154.6,102,154.7z M102,154.7
			c0-0.1,0-0.2,0.2-0.2C102.3,154.5,102.2,154.6,102,154.7z M102.4,153.7c0,0.1-0.1,0.2-0.3,0.2
			C102.1,153.8,102.2,153.7,102.4,153.7z M103.2,152.6c0.1,0,0.1,0.1-0.2,0.2C103.1,152.7,103.1,152.6,103.2,152.6z M103.9,155.1
			c0,0.2-0.1,0.3-0.2,0.1C103.4,155.1,103.5,155,103.9,155.1z M103.9,155.1c0-0.1,0-0.2,0.2-0.2C104.1,154.9,104.1,155,103.9,155.1z
			 M107.1,206c-0.1-0.2-0.2-0.2-0.2,0.1C106.8,206.4,106.9,206.4,107.1,206z M104,154.1c0-0.3,0-0.3,0.2,0
			C104.1,154.4,104,154.4,104,154.1z M107.8,205.7c0,0.2-0.1,0.3-0.2,0.3c-0.2,0-0.2,0-0.1,0.3c0.2,0.1,0.4,0,0.5-0.2
			C108.1,205.8,108,205.7,107.8,205.7z M108.2,204.6c-0.3,0-0.5,0.1-0.5,0.2C108.1,204.8,108.2,204.7,108.2,204.6z M109.3,205.6
			c0.2,0.2,0.5,0.3,0.8,0.1c0.3-0.1,0.2-0.2-0.3-0.3c0-0.1,0-0.2-0.1-0.2s-0.1,0.1-0.1,0.2C109.4,205.4,109.3,205.5,109.3,205.6
			c-0.2-0.2-0.5-0.3-0.7-0.1c-0.2,0.1-0.4,0.3-0.5,0.5c0.2,0,0.5,0,0.7,0C109,205.9,109.2,205.8,109.3,205.6z M108.8,206.3
			c-0.4,0-0.7,0.1-0.7,0.4C108.4,206.7,108.6,206.5,108.8,206.3z M109.2,204.6c0.9,0.1,1.2,0,1-0.2
			C110,204.1,109.7,204.2,109.2,204.6z M109.8,205.4c0,0.1,0,0.2-0.1,0.2s-0.1-0.1-0.1-0.2H109.8z M109.7,206.1
			c0,0.1,0.1,0.2,0.2,0.2s0.2-0.1,0.2-0.2c-0.1,0-0.2,0-0.3-0.2C109.7,205.8,109.7,205.8,109.7,206.1z M112,205.6
			c0.1,0,0.2-0.1,0.2-0.2h0.2c0-0.5,0.1-0.6,0.5-0.5c0.3,0.1,0.5,0.1,0.3-0.3c-0.1-0.1-0.3-0.1-0.4,0c-0.2,0.1-0.4,0.1-0.6-0.1
			c-0.2,0.6-0.7,0.8-1.5,0.6c0.1,0.3,0.1,0.4-0.2,0.2c-0.2-0.2-0.3-0.1-0.1,0.3c0.2,0,0.4-0.1,0.6-0.2c0.2-0.1,0.4-0.1,0.6,0
			c0,0.6,0.2,0.8,0.4,0.8C111.8,206.1,111.8,205.8,112,205.6z M110.5,206c0.2-0.1,0.4-0.1,0.5,0s0.2,0,0.3-0.2
			C111.1,205.6,110.8,205.7,110.5,206z M112.9,203.9c0.4,0,0.5-0.1,0.4-0.4c-0.8,0.3-1.2,0.2-1.4-0.1c0.1,0.2,0.1,0.3-0.1,0.3
			s-0.2,0.1-0.2,0.4c-0.2,0.1-0.4,0.1-0.4-0.1c-0.1-0.2-0.1-0.1-0.2,0.1c-0.2,0-0.3,0.1-0.3,0.4c0.6,0,0.9-0.2,1-0.4
			c0.1,0.1,0.3,0.1,0.7,0.1C112.3,204,112.5,203.9,112.9,203.9z M110.9,204.1c0.1,0,0.2,0,0.2,0.1s-0.1,0.1-0.2,0.1V204.1z
			 M112,205.4v0.2c-0.1,0-0.2,0-0.2-0.1C111.8,205.5,111.9,205.4,112,205.4z M112.2,205.4H112c0-0.1,0-0.2,0.1-0.2
			C112.1,205.3,112.2,205.3,112.2,205.4z M114,204.6c-0.1-0.1-0.3-0.2-0.4-0.1c-0.2,0-0.2,0.1-0.2,0.4
			C113.8,204.8,114,204.7,114,204.6z M115.6,203c0.3,0,0.7,0,1.2-0.1c0.5,0,0.8-0.2,1-0.6c0.2,0,0.2-0.1,0.1-0.3
			c-0.2-0.2-0.2-0.1-0.1,0.3c-0.3,0-0.7,0-1,0.1s-0.4,0.1-0.3,0.4c-0.1,0-0.3,0-0.5-0.1C115.7,202.7,115.6,202.8,115.6,203
			c-0.2-0.1-0.5-0.1-0.7,0s-0.5,0-0.7-0.2c0,0.2-0.1,0.3-0.2,0.4c-0.2,0-0.2,0.1-0.2,0.4c0.2,0,0.5,0,0.9-0.1
			C115.1,203.4,115.4,203.3,115.6,203z M116.8,203.8c0.4,0.2,0.7,0.1,1-0.2c-0.2-0.1-0.5-0.1-0.7,0s-0.4,0.1-0.7-0.1
			c0,0.2-0.1,0.4-0.2,0.4c-0.2,0.1-0.2,0.2-0.1,0.4h0.3c0,0.1,0,0.2,0.1,0.2s0.1-0.1,0.1-0.2h0.2L116.8,203.8z M116.7,204.3h-0.2
			c0-0.1,0-0.2,0.1-0.2C116.6,204.1,116.7,204.2,116.7,204.3z M117.5,204.1v0.3c0,0.1,0.1,0.2,0.3,0.1c0-0.1,0.1-0.3,0.3-0.5
			L117.5,204.1z M118.6,203.2c-0.2-0.1-0.4,0-0.6,0.2s-0.1,0.4,0.1,0.5c-0.1-0.2-0.1-0.3,0.1-0.3
			C118.6,203.5,118.7,203.4,118.6,203.2z M119.4,202c-0.4,0-0.7,0.1-0.8,0.1c-0.1,0.1-0.2,0-0.4-0.2c0,0.3,0,0.6-0.1,0.7
			c0.2-0.1,0.4-0.2,0.7-0.2C119,202.3,119.2,202.2,119.4,202z M119.5,203c-0.4,0-0.7,0.1-0.7,0.4C119.1,203.3,119.3,203.2,119.5,203
			z M119.9,201.8c-0.2,0-0.3,0.1-0.3,0.2C119.8,201.9,119.9,201.9,119.9,201.8z M120.3,201.7c0.1,0.3,0.3,0.2,0.7-0.3
			C120.5,201.3,120.3,201.4,120.3,201.7z M120.8,202.6c-0.2,0-0.3,0.1-0.3,0.2C120.7,202.7,120.8,202.7,120.8,202.6z M121.1,203.9
			c0,0.1,0,0.2-0.1,0.2s-0.1-0.1-0.1-0.2H121.1z M121.4,203.2c-0.2,0-0.3,0.1-0.3,0.2C121.3,203.4,121.4,203.3,121.4,203.2z
			 M121.6,202.3c-0.1,0-0.2,0.1-0.2,0.2C121.7,202.4,121.8,202.3,121.6,202.3z M122.3,201c0.1,0.3,0.2,0.3,0.3,0.1
			C122.3,200.8,122.3,200.8,122.3,201z M122.7,200.9c0.2,0,0.3-0.1,0.3-0.2C122.9,200.7,122.7,200.8,122.7,200.9z M123.7,201.8
			c0.2-0.1,0.1-0.2-0.1-0.2c0,0.2-0.1,0.3-0.3,0.3s-0.3,0-0.3,0.3h0.5C123.5,202,123.6,201.9,123.7,201.8z M123.8,200.4
			c-0.2-0.2-0.3-0.1-0.2,0.3C123.9,200.7,124,200.6,123.8,200.4z M124.6,200.3c-0.1-0.3-0.2-0.3-0.2,0
			C124.4,200.7,124.5,200.7,124.6,200.3z M126.2,201.6c-0.4,0-0.7,0.1-0.7,0.2c0.2,0,0.2,0.1,0,0.3c0.2,0,0.3-0.1,0.3-0.2
			C125.8,201.8,126,201.7,126.2,201.6z M126.2,199.7c-0.2,0-0.3,0.1-0.3,0.2C126.1,199.9,126.2,199.8,126.2,199.7z M126.3,200.7
			c0,0.1,0.1,0.2,0.2,0.2s0.2-0.1,0.2-0.2c-0.1,0-0.2,0-0.3-0.2C126.3,200.4,126.3,200.5,126.3,200.7z M127.5,201.2
			c-0.1-0.2-0.2-0.2-0.2,0.1C127.2,201.5,127.3,201.5,127.5,201.2z M128.2,200c-0.2-0.2-0.3-0.1-0.2,0.3
			C128.3,200.3,128.4,200.2,128.2,200z M129.3,199.7c-0.2,0-0.4,0.1-0.7,0.4C129.1,200.1,129.3,199.9,129.3,199.7z M129.4,198.2
			c0,0.1,0.1,0.2,0.2,0.2c0,0.1-0.1,0.2-0.3,0.2c0-0.2-0.1-0.3-0.2-0.3c0,0.1,0,0.2-0.1,0.3s-0.1,0.1-0.1,0.3c0.3,0.4,0.5,0.4,0.8,0
			c0.3-0.5,0.2-0.6-0.2-0.3C129.4,198.1,129.4,198.1,129.4,198.2z M129.6,199.3c0,0.1,0.1,0.2,0.2,0.2c0.1,0,0.2-0.1,0.2-0.2
			c-0.1,0-0.2,0-0.3-0.2C129.6,199.1,129.6,199.1,129.6,199.3z M131.1,199.4v-0.5c-0.2-0.1-0.4,0-0.4,0.2s-0.2,0.2-0.4,0
			c-0.1,0.2,0,0.3,0.2,0.3C130.7,199.5,130.9,199.4,131.1,199.4c0,0.1,0,0.2-0.2,0.2c-0.1,0-0.2,0.1-0.2,0.2
			c0.1,0.1,0.3,0.1,0.4,0.1c0.2-0.1,0.2-0.2,0.2-0.4L131.1,199.4z M130.2,198.3c0.2,0,0.3-0.1,0.3-0.2
			C130.3,198.1,130.2,198.2,130.2,198.3z M131.2,197.9c-0.1-0.3-0.2-0.3-0.2,0C131.1,198.2,131.1,198.2,131.2,197.9z M132.1,198.9
			c0.5,0,0.7-0.2,0.7-0.4C132.3,198.5,132.1,198.6,132.1,198.9z M133.2,199.6c0,0.1,0,0.2-0.1,0.2s-0.1-0.1-0.1-0.2H133.2z
			 M133.5,198.8c-0.1,0-0.2,0.1-0.2,0.2C133.5,198.8,133.6,198.8,133.5,198.8z M133.4,197.1c0.2,0,0.3-0.1,0.3-0.2
			C133.5,196.9,133.4,197,133.4,197.1z M134.6,198.4c-0.3,0-0.5,0.1-0.5,0.2C134.5,198.6,134.6,198.5,134.6,198.4z M135.2,196.5
			c-0.2,0-0.3,0.1-0.3,0.2C135.1,196.7,135.2,196.6,135.2,196.5z M135.4,197.3c-0.2,0-0.3,0.1-0.3,0.2
			C135.3,197.5,135.4,197.4,135.4,197.3z M136.1,197.8c-0.2,0-0.3,0.1-0.3,0.2C136,198,136.1,197.9,136.1,197.8z M136.4,196.8h-0.3
			v0.3h0.3V196.8z M136.9,196.6c0-0.1-0.1-0.1-0.2-0.1c-0.1-0.2-0.2-0.3-0.2-0.2s0.1,0.2,0.2,0.2v0.2
			C136.8,196.7,136.9,196.7,136.9,196.6z M137.4,194.7v0.3h0.3v-0.3H137.4z M138.8,196.8v0.2c-0.1,0-0.2,0-0.2-0.1
			C138.6,196.8,138.6,196.8,138.8,196.8z M141,195.5c-0.2,0-0.3,0.1-0.3,0.2C140.9,195.6,141.1,195.6,141,195.5z M141.1,193.6
			c-0.1-0.2-0.2-0.2-0.2,0.1C140.8,194,140.9,194,141.1,193.6z M141.6,195.6c-0.2,0-0.3,0.1-0.3,0.2
			C141.5,195.8,141.6,195.7,141.6,195.6z M142.8,192.8c0.2-0.1,0.4-0.1,0.4,0.1c0.1,0.2,0.1,0.1,0.1-0.3c0.3,0.1,0.4,0.1,0.2-0.1
			c-0.2-0.2-0.3-0.1-0.2,0.1C142.9,192.7,142.8,192.7,142.8,192.8c-0.4,0-0.7,0.1-0.7,0.4C142.7,193.2,142.9,193.1,142.8,192.8z
			 M142.9,194.5c0,0.3,0.1,0.5,0.2,0.5c0-0.1,0-0.2,0.2-0.3c0.1-0.1,0.2-0.2,0.2-0.3L142.9,194.5z M143.1,193.7v0.3h0.3v-0.3H143.1z
			 M144.7,194.6c-0.1,0-0.2-0.2-0.2-0.5h0.5c0,0.1,0,0.2-0.2,0.3C144.8,194.4,144.7,194.5,144.7,194.6z M144.9,191.9
			c0,0.3,0.1,0.3,0.2,0C144.9,191.5,144.9,191.5,144.9,191.9z M145.4,192.9c0.1,0.1,0.1,0.1,0.3,0.1v-0.3c0-0.1-0.1-0.2-0.2-0.2
			c0,0.1-0.1,0.1-0.2,0.1c-0.2,0-0.3,0-0.2,0.3C145.2,192.9,145.3,192.9,145.4,192.9z M146.1,191.3c0.2,0,0.3-0.1,0.3-0.2
			C146.2,191.1,146,191.2,146.1,191.3z M146.9,190.7c-0.2-0.2-0.3-0.2-0.3,0.1C146.6,191.1,146.7,191.1,146.9,190.7z M147.2,190.6
			c0,0.3,0.1,0.3,0.2,0C147.2,190.2,147.2,190.2,147.2,190.6z M148.2,192.5c0,0.1,0,0.2-0.1,0.2s-0.1-0.1-0.1-0.2H148.2z
			 M148.3,189.6H148v0.3h0.3V189.6z M148.6,191.8c0.3,0.1,0.4,0.1,0.2-0.1C148.7,191.6,148.6,191.6,148.6,191.8
			c-0.3,0-0.5,0.1-0.5,0.4C148.5,192.2,148.6,192,148.6,191.8z M148.2,191.2c0.3,0,0.5-0.1,0.5-0.2
			C148.4,191,148.2,191.1,148.2,191.2z M149,189.1c-0.3,0-0.5,0.1-0.5,0.4h0.3c0-0.1,0-0.2,0.1-0.2C149,189.3,149,189.2,149,189.1z
			 M149.1,190.6c-0.1,0.1-0.2,0.3-0.1,0.4c0,0.2,0.1,0.2,0.4,0.2C149.5,191,149.4,190.8,149.1,190.6z M149.6,191.8
			c0,0.1,0,0.2-0.2,0.2C149.5,191.8,149.5,191.8,149.6,191.8z M150.6,191.4c0-0.1,0-0.2-0.1-0.2s-0.1,0.1-0.1,0.2h-0.2
			c0-0.1-0.1-0.2-0.2-0.2V191c0.3,0,0.6-0.1,0.7-0.2C150.8,191.2,150.7,191.4,150.6,191.4z M150.4,189.9c0,0.1,0.1,0.2,0.2,0.2
			C150.4,189.8,150.4,189.7,150.4,189.9z M150.5,191.4h0.2c0,0.2,0,0.3-0.1,0.3C150.5,191.7,150.5,191.6,150.5,191.4z M151.3,191
			c-0.1,0.2-0.2,0.3-0.2,0.1c-0.1-0.2-0.2-0.2-0.3-0.2c0.1-0.2,0.2-0.3,0.2-0.1C151.1,190.9,151.2,191,151.3,191z M151.3,191
			c0-0.1,0-0.2,0.2-0.2C151.6,190.8,151.5,190.9,151.3,191z M152.2,189.1c0.2-0.1,0.3-0.2,0.2-0.2
			C152.2,188.9,152.2,189,152.2,189.1c-0.1,0-0.2,0.1-0.2,0.2c-0.5-0.1-0.6-0.1-0.4,0.1c0.2,0.2,0.3,0.1,0.4-0.1
			C152.1,189.3,152.2,189.2,152.2,189.1z M153.7,186.8c-0.2,0-0.3,0.1-0.3,0.2C153.6,187,153.8,186.9,153.7,186.8z M154.7,188.1
			C154.5,188.3,154.5,188.3,154.7,188.1C154.9,187.9,154.9,187.9,154.7,188.1z M154.7,188.4c0,0.1,0.1,0.2,0.2,0.2
			C154.7,188.4,154.7,188.3,154.7,188.4z M155.5,188.2c0-0.1,0-0.2,0.2-0.2C155.8,188,155.7,188.1,155.5,188.2z M156,188.4
			c0,0.1-0.1,0.2-0.3,0.2C155.7,188.4,155.8,188.4,156,188.4z M156,185.2c0-0.1-0.1-0.1-0.2-0.1c0,0.3,0.1,0.5,0.4,0.5v-0.3
			C156.1,185.3,156,185.3,156,185.2z M156.7,187.8h-0.2v-0.2C156.6,187.6,156.7,187.7,156.7,187.8z M156.9,187.8
			c0,0.1,0,0.2-0.1,0.2s-0.1-0.1-0.1-0.2H156.9z M160.2,184.9c-0.3,0-0.5,0.1-0.5,0.4C160.1,185.2,160.3,185.1,160.2,184.9z
			 M161.9,184.1c0.2,0,0.2-0.1,0.1-0.3C161.8,183.7,161.8,183.8,161.9,184.1c-0.5-0.1-0.5,0-0.2,0.3
			C161.9,184.7,162,184.6,161.9,184.1z M162.9,183.4c0.3,0,0.6,0,0.7,0.1c0-0.5-0.2-0.7-0.4-0.8L162.9,183.4z M164.6,181.9
			c-0.2,0.1-0.2,0.3,0.2,0.5c0-0.2,0.1-0.4,0.3-0.5s0.2-0.3,0-0.5C165,181.6,164.9,181.8,164.6,181.9z M165.5,179.5
			c0,0.3,0.1,0.3,0.2,0C165.6,179.2,165.5,179.2,165.5,179.5z M166.2,179.1c-0.2,0-0.3,0.1-0.3,0.2
			C166.1,179.3,166.2,179.3,166.2,179.1z M166,178.5c0,0.2,0.1,0.3,0.4,0.3c0-0.3-0.1-0.5-0.2-0.5
			C166.1,178.4,166.1,178.5,166,178.5z M166.6,181.1c0,0.1,0.1,0.2,0.2,0.2c0.1,0,0.2-0.1,0.2-0.2c-0.1,0-0.2,0-0.3-0.2
			C166.6,180.9,166.6,180.9,166.6,181.1z M167.6,180.2c0.1,0,0.2-0.1,0.2-0.2c-0.1,0-0.2,0-0.3-0.2c-0.1-0.1-0.1-0.1-0.1,0.2
			C167.4,180.2,167.5,180.3,167.6,180.2z M168.4,179.7c0.2-0.1,0.2-0.3,0.1-0.4C168.3,179.1,168.3,179.2,168.4,179.7
			c-0.2,0-0.2,0.1-0.1,0.3C168.5,180.1,168.5,180,168.4,179.7z M170.1,177.6c0,0.3,0,0.3,0.2-0.1
			C170.2,177.3,170.1,177.4,170.1,177.6z M170.7,178c0.2-0.1,0.3-0.2,0.2-0.2C170.7,177.9,170.7,177.9,170.7,178
			c-0.3,0-0.4,0.1-0.2,0.3C170.6,178.5,170.7,178.4,170.7,178z M172.1,176.4c0,0.1,0.1,0.2,0.2,0.2c0,0.2,0.1,0.3,0.4,0.3
			c0.2,0,0.3,0.1,0.4,0.3c0-0.2,0-0.4,0.1-0.5s0-0.2-0.3-0.3c0,0.1-0.2,0.2-0.5,0.2C172.2,176.4,172.1,176.3,172.1,176.4z
			 M172.5,174.4c-0.2-0.3-0.3-0.3-0.3-0.1C172.3,174.6,172.4,174.6,172.5,174.4z M173.4,175.7v0.5c0.3,0,0.5-0.1,0.5-0.2
			c-0.1,0-0.2,0-0.3-0.2C173.6,175.7,173.5,175.7,173.4,175.7z M173.9,175.8c0.2,0,0.5-0.2,0.8-0.6
			C174.2,175.3,173.9,175.5,173.9,175.8z M175.1,174.9c0.2,0,0.3-0.1,0.3-0.2C175.2,174.7,175.1,174.8,175.1,174.9z M175.9,172
			c-0.1-0.3-0.2-0.3-0.2,0S175.8,172.3,175.9,172z M176.9,173.6c0.2-0.1,0.3-0.2,0.2-0.2C176.9,173.4,176.8,173.5,176.9,173.6
			c-0.2,0-0.4,0.1-0.7,0.4C176.6,174,176.9,173.8,176.9,173.6z M178.5,172.3C178.3,172.6,178.3,172.6,178.5,172.3
			C178.7,172.1,178.7,172.1,178.5,172.3z M179.4,171.4c-0.2,0-0.4,0.1-0.7,0.4C179.2,171.8,179.4,171.7,179.4,171.4z M179.6,169.1
			c-0.1,0-0.2,0.1-0.2,0.2C179.7,169.1,179.7,169.1,179.6,169.1z M180.6,170.7c-0.1-0.2-0.2-0.2-0.2,0.1
			C180.3,171.1,180.4,171.1,180.6,170.7z M182.2,168.9c0.1,0.2,0.1,0.4-0.1,0.5c-0.2,0.1-0.1,0.2,0.3,0.2c-0.2-0.2-0.2-0.3,0.2-0.4
			c0.4,0,0.4-0.1,0.1-0.3C182.7,169.2,182.5,169.2,182.2,168.9z M184.4,167.3c-0.1,0.5-0.1,0.5,0,0.2
			C184.5,166.9,184.5,166.8,184.4,167.3z M185.2,166.5c-0.1-0.3-0.2-0.3-0.2,0C185.1,166.9,185.2,166.9,185.2,166.5z M185.6,167
			c0.2,0,0.3-0.1,0.3-0.2C185.7,166.9,185.6,166.9,185.6,167z M187,165.3c-0.1,0.5,0,0.6,0.2,0.3C187.2,164.9,187.1,164.8,187,165.3
			z M187.3,164.7c0.2,0,0.3-0.1,0.3-0.2C187.4,164.6,187.3,164.6,187.3,164.7z M188.3,164.3c0.2,0,0.3-0.1,0.3-0.2
			C188.4,164.2,188.3,164.2,188.3,164.3z M191,163.5c-0.1-0.3-0.1-0.4,0.1-0.3C191.2,163.4,191.2,163.5,191,163.5z M194.2,155.6
			c0,0.3,0,0.3,0.2-0.1C194.3,155.3,194.2,155.3,194.2,155.6z M195.1,159.2c0-0.3,0-0.3,0.2,0C195.2,159.5,195.2,159.5,195.1,159.2z
			 M195.7,157.3c0,0.3,0.1,0.3,0.2,0C195.8,157,195.7,157,195.7,157.3z M196.9,156.7c0.2-0.1,0.2-0.3,0.1-0.4
			C196.7,156.2,196.7,156.3,196.9,156.7c-0.2-0.2-0.4-0.2-0.3,0C196.5,157,196.7,157,196.9,156.7z M197.2,157.5
			c-0.2-0.2-0.2-0.2,0.1-0.3C197.4,157.6,197.3,157.6,197.2,157.5z M197.2,157.1c0.1,0,0.2,0,0.2,0.1s-0.1,0.1-0.2,0.1V157.1z
			 M198.8,155.6c0,0.1,0,0.2-0.1,0.2s-0.1-0.1-0.1-0.2H198.8z M203.7,149.2h-0.3v0.3h0.3V149.2z M204.2,148.9
			c-0.1-0.3-0.2-0.3-0.2,0S204.1,149.2,204.2,148.9z"/>
	</g>
</g>
<text transform="matrix(1 0 0 1 -13 -11)" style="font-family:'ArialMT'; font-size:12px;"> </text>
<text transform="matrix(1 0 0 1 -13 -11)" style="font-family:'ArialMT'; font-size:12px;"> </text>
</svg>
